<svg xmlns="http://www.w3.org/2000/svg" viewBox="0 0 700 350" role="img" aria-labelledby="title desc">
  <title id="title">Capillarity-driven flow in HAR nanopatterns and porous media</title>
  <desc id="desc">Two schematic panels showing capillary infiltration in high-aspect-ratio nanopatterns and surface-tension-driven flow through porous media.</desc>
  <defs>
    <linearGradient id="water" x1="0" y1="0" x2="0" y2="1">
      <stop offset="0" stop-color="#dff0ff"/>
      <stop offset="1" stop-color="#a9d7fb"/>
    </linearGradient>
    <linearGradient id="solid" x1="0" y1="0" x2="0" y2="1">
      <stop offset="0" stop-color="#ededed"/>
      <stop offset="1" stop-color="#d4d4d4"/>
    </linearGradient>
    <filter id="softShadow" x="-8%" y="-8%" width="116%" height="116%">
      <feDropShadow dx="0" dy="2" stdDeviation="2" flood-color="#000000" flood-opacity="0.1"/>
    </filter>
    <marker id="arrow" markerWidth="8" markerHeight="8" refX="6" refY="4" orient="auto">
      <path d="M0,0 L8,4 L0,8 Z" fill="#2f93dc"/>
    </marker>
  </defs>

  <rect width="700" height="350" rx="12" fill="#ffffff"/>

  <g transform="translate(4 5)" filter="url(#softShadow)">
    <rect x="0" y="0" width="336" height="340" rx="10" fill="#fbfbfb" stroke="#8d8d8d" stroke-width="1.4"/>
    <path d="M1 31 C32 21 55 33 87 28 C126 22 153 33 191 27 C231 20 260 34 335 24 L335 119 C314 121 314 148 300 150 C284 152 280 128 280 103 L280 62 L251 62 L251 331 L228 331 L228 62 L199 62 L199 210 C199 238 188 255 176 256 C163 257 153 237 153 209 L153 62 L124 62 L124 331 L101 331 L101 62 L72 62 L72 168 C72 193 62 208 50 208 C37 208 27 190 27 165 L27 62 L0 62 Z" fill="url(#water)" opacity="0.88"/>
    <rect x="0" y="289" width="336" height="42" fill="url(#solid)" stroke="#9a9a9a" stroke-width="1"/>
    <g fill="url(#solid)" stroke="#9a9a9a" stroke-width="1.2">
      <rect x="28" y="62" width="27" height="227"/>
      <rect x="76" y="62" width="27" height="227"/>
      <rect x="125" y="62" width="27" height="227"/>
      <rect x="174" y="62" width="27" height="227"/>
      <rect x="223" y="62" width="27" height="227"/>
      <rect x="280" y="62" width="27" height="227"/>
    </g>
    <g stroke="#2f93dc" stroke-width="2" stroke-linecap="round" marker-end="url(#arrow)">
      <path d="M43 93 L43 132"/>
      <path d="M89 91 L89 170"/>
      <path d="M139 90 L139 123"/>
      <path d="M187 91 L187 205"/>
      <path d="M236 93 L236 176"/>
      <path d="M294 94 L294 234"/>
    </g>
    <g>
      <rect x="26" y="16" width="174" height="28" rx="14" fill="#f8fbff" stroke="#bdd8ef"/>
      <text x="39" y="36" fill="#22577f" font-family="Helvetica, Arial, sans-serif" font-size="16" font-weight="800">HAR nanopattern</text>
    </g>
  </g>

  <g transform="translate(360 5)" filter="url(#softShadow)">
    <rect x="0" y="0" width="336" height="340" rx="10" fill="#ffffff" stroke="#8d8d8d" stroke-width="1.4"/>
    <path d="M5 34 C42 54 48 84 75 91 C111 100 129 69 166 79 C206 90 197 128 233 140 C269 153 296 128 331 148 L331 335 L4 335 Z" fill="url(#water)" opacity="0.82"/>
    <path d="M0 135 C29 110 61 132 84 153 C121 188 158 168 185 137 C215 101 240 91 276 104 C306 116 319 143 336 158 L336 340 L0 340 Z" fill="url(#water)" opacity="0.72"/>
    <path d="M8 232 C38 213 62 221 88 238 C130 266 153 249 188 216 C218 188 246 189 280 215 C306 235 321 260 336 276 L336 340 L4 340 Z" fill="#d7edff" opacity="0.86"/>
    <g fill="url(#solid)" stroke="#9a9a9a" stroke-width="1.3">
      <path d="M11 6 C33 -2 63 5 73 26 C82 45 64 66 38 67 C15 68 -5 51 1 30 C3 20 4 11 11 6Z"/>
      <path d="M94 14 C121 -4 159 5 169 35 C178 63 153 89 124 81 C95 73 78 33 94 14Z"/>
      <path d="M229 9 C258 -5 294 4 304 31 C314 61 286 85 254 75 C226 66 207 20 229 9Z"/>
      <path d="M283 102 C310 88 337 105 338 132 C340 164 306 178 278 160 C253 144 257 115 283 102Z"/>
      <path d="M182 113 C214 98 246 115 252 145 C259 178 226 205 191 193 C159 181 151 128 182 113Z"/>
      <path d="M93 118 C122 105 150 124 151 154 C152 184 122 200 96 187 C68 173 65 131 93 118Z"/>
      <path d="M15 155 C43 142 72 158 76 187 C80 218 50 242 22 230 C-3 219 -10 169 15 155Z"/>
      <path d="M251 211 C280 198 313 216 319 248 C325 281 293 306 261 293 C231 281 221 225 251 211Z"/>
      <path d="M126 229 C157 212 193 225 204 257 C214 289 184 319 148 311 C113 303 93 247 126 229Z"/>
      <path d="M41 265 C67 248 99 261 108 291 C117 322 86 343 55 333 C27 324 16 281 41 265Z"/>
    </g>
    <g stroke="#2f93dc" stroke-width="2" fill="none" stroke-linecap="round" marker-end="url(#arrow)">
      <path d="M68 91 C88 105 99 113 116 128"/>
      <path d="M154 78 C173 92 184 103 194 121"/>
      <path d="M236 82 C251 95 262 109 279 125"/>
      <path d="M72 212 C92 223 107 235 123 251"/>
      <path d="M198 191 C216 204 229 217 245 235"/>
      <path d="M286 165 C304 176 316 190 327 211"/>
      <path d="M147 204 C135 217 127 231 121 247"/>
    </g>
    <g>
      <rect x="31" y="16" width="128" height="28" rx="14" fill="#f8fbff" stroke="#bdd8ef"/>
      <text x="47" y="36" fill="#22577f" font-family="Helvetica, Arial, sans-serif" font-size="16" font-weight="800">Porous media</text>
    </g>
  </g>
</svg>
